PathFileType	4	(X/Y/Z)	c:\Git\powerlifing_model_clean\simulations\HC835B\Session1\HC835B_OGR_0004\marker_experimental.trc
DataRate	CameraRate	NumFrames	NumMarkers	Units	OrigDataRate	OrigDataStartFrame	OrigNumFrames
240.000000	240.000000	4	38	mm	240.000000	0	217
Frame#	Time	RPSI			LPSI			RASI			LASI			RTH1			RTH2			RTH3			RTH4			RSK1			RSK2			RSK3			RSK4			RCAL1			RCAL2			RCAL3			RST			RPT			RTN			RFMB			RSMB			RVMB			RFMH			RSMH			RVMH			RPM			LTH1			LTH2			LTH3			LTH4			LSK1			LSK2			LSK3			LSK4			LCAL1			LCAL2			LCAL3			LFMH			LVMH			
		X1	Y1	Z1	X2	Y2	Z2	X3	Y3	Z3	X4	Y4	Z4	X5	Y5	Z5	X6	Y6	Z6	X7	Y7	Z7	X8	Y8	Z8	X9	Y9	Z9	X10	Y10	Z10	X11	Y11	Z11	X12	Y12	Z12	X13	Y13	Z13	X14	Y14	Z14	X15	Y15	Z15	X16	Y16	Z16	X17	Y17	Z17	X18	Y18	Z18	X19	Y19	Z19	X20	Y20	Z20	X21	Y21	Z21	X22	Y22	Z22	X23	Y23	Z23	X24	Y24	Z24	X25	Y25	Z25	X26	Y26	Z26	X27	Y27	Z27	X28	Y28	Z28	X29	Y29	Z29	X30	Y30	Z30	X31	Y31	Z31	X32	Y32	Z32	X33	Y33	Z33	X34	Y34	Z34	X35	Y35	Z35	X36	Y36	Z36	X37	Y37	Z37	X38	Y38	Z38	

1	0	472.6716308593751	1228.91015625	380.4973754882813	360.3579101562501	1227.745361328125	375.3848266601563	541.2813110351564	1150.516357421875	200.1073760986329	316.0241088867188	1131.632446289063	187.6927795410157	609.7822875976564	866.5554199218752	215.9730224609376	591.8347167968751	872.3834228515627	157.3961181640625	596.3934326171876	795.3218994140627	171.5141754150391	568.5294799804689	799.5217285156252	119.9176712036133	537.8354492187501	350.2712707519532	146.8761749267578	545.5605468750001	347.8645935058594	85.62615966796876	532.3120117187501	298.5496520996094	119.6213073730469	527.5816040039064	297.9445190429688	59.72302627563478	459.3233032226564	140.1964721679688	135.0688934326172	419.9691467285157	116.4128723144532	114.7635803222657	480.2401123046876	97.2342224121094	123.956657409668	423.998504638672	148.5086975097657	51.19042587280275	515.5473022460939	113.0713958740235	72.29331970214845	448.4306030273439	173.8574371337891	3.600519180297852	452.2745056152345	161.728515625	-30.38433647155762	505.3888244628907	172.6293640136719	-29.89372825622559	525.0006713867189	94.60876464843751	24.06445312500001	447.8711242675782	144.1306304931641	-89.97582244873048	506.4984436035157	147.2503814697266	-94.8343963623047	549.3873901367189	97.61745452880862	-52.29170989990236	503.437469482422	156.9550018310547	-149.3453063964844	243.0813598632813	880.9580688476565	386.7291870117189	254.6523437500001	845.858825683594	338.4042663574219	253.6464996337891	797.6336669921877	403.4205322265626	277.8262329101563	764.9930419921876	358.7052001953126	289.2522888183594	526.1943359375001	764.8800659179689	280.5215759277344	476.6739196777345	747.3807373046876	288.1186523437501	480.4254760742189	796.0212402343752	297.4099426269532	427.9400939941407	773.5937500000002	356.7794189453126	445.7525939941407	919.1433715820315	336.2956848144532	434.2004699707032	960.968933105469	393.4397888183595	431.4931640625001	946.554138183594	385.9712829589845	222.0340118408204	882.632019042969	294.4686279296876	246.3485412597657	939.679870605469	
2	0.004166666666666667	473.2325439453126	1227.278686523438	366.8631286621094	361.0057067871094	1226.43994140625	361.6947326660157	541.2573852539064	1148.520629882813	186.3239288330078	315.6144104003907	1131.407470703125	173.7461853027344	610.3849487304689	863.762390136719	204.9819641113282	592.0260620117189	868.966247558594	146.4616088867188	596.6940307617189	792.0412597656252	161.3909759521485	568.4856567382814	795.6646728515627	109.9542922973633	538.3299560546876	347.3022766113282	130.7801055908203	545.6561889648439	346.0417480468751	69.45257568359376	532.7175903320314	296.0992431640626	102.7044906616211	527.5565795898439	296.5400695800782	42.84235000610352	460.0670776367189	137.5091552734375	115.9376754760742	420.3329162597657	114.275016784668	95.50194549560548	480.679168701172	94.63912963867189	103.9928665161133	424.2461242675782	147.1062774658203	32.36219024658204	515.6781616210939	111.1300659179688	52.33411788940431	448.8168029785157	172.5128173828125	-15.02610397338868	451.9141540527345	161.6613922119141	-49.17576217651369	504.9452514648439	172.302978515625	-48.95296096801759	524.6485595703126	93.2953567504883	3.70937204360962	446.8388061523439	144.912338256836	-108.8852844238282	505.4870605468751	147.9200897216797	-114.1817474365235	548.2184448242189	97.23671722412112	-72.78411865234376	502.097137451172	158.7711791992188	-168.398910522461	243.3038330078126	878.7062988281252	371.0092163085938	255.1651611328126	843.864440917969	322.4869689941407	254.0432281494141	795.2495727539065	387.2459716796876	278.3825073242188	763.0769042968751	342.3422851562501	289.2854003906251	531.4771728515626	751.9935302734376	280.1818237304688	481.5423889160157	735.8042602539064	288.3923034667969	486.2817993164064	784.5921020507815	296.7083740234376	433.4861755371095	763.3431396484376	356.7402648925782	454.8280639648439	908.3936157226565	336.4099121093751	444.4544067382814	950.4704589843752	393.4410095214845	441.4385986328126	935.7766113281252	385.583953857422	230.3752136230469	877.1250000000002	294.3403320312501	256.0521545410157	934.1743774414065	
3	0.008333333333333333	473.7744445800782	1225.307983398438	353.3688354492188	361.6677551269532	1224.869018554688	348.0581359863282	541.0855712890626	1146.393310546875	172.6427459716797	315.1092834472657	1130.968139648438	160.0722808837891	610.9315795898439	860.9467773437502	193.8796539306641	592.3777465820314	865.6560058593752	135.4301452636719	596.9828491210939	788.8485107421877	151.0874938964844	568.6023559570314	792.0064086914065	99.70485687255862	538.6457519531251	344.6666259765626	115.132682800293	545.7575683593751	344.2019958496094	53.78494262695314	533.0242919921876	293.7525329589844	86.33373260498048	527.6100463867189	295.0586547851563	26.52253532409669	461.0484008789064	134.9120330810547	97.75148773193362	421.183074951172	111.8691024780274	77.49430084228517	481.6184082031251	92.26599121093751	85.1096878051758	424.4097595214845	145.6916809082032	14.77099132537842	516.0921630859376	109.3267974853516	33.25669097900391	448.6531982421876	171.7905578613282	-32.79867935180665	451.3575134277345	161.2292785644532	-66.93050384521486	504.1121215820314	171.844223022461	-67.39929962158205	524.5521240234376	92.13791656494142	-15.64029693603516	445.5291137695314	145.1719207763672	-126.7192153930664	504.1204528808595	148.2191925048828	-132.6278381347657	547.1783447265626	96.98811340332034	-92.26641082763673	500.1450805664064	159.9506378173828	-186.5726776123047	243.5724029541016	876.2248535156252	355.3388671875001	255.6431884765626	841.9361572265627	306.5314636230469	253.9856872558594	792.8160400390627	370.9463806152344	278.6915283203126	760.8092651367189	325.9856872558594	289.2676391601563	536.5410156250001	738.5375976562501	279.7921447753907	486.2833251953126	723.8570556640626	288.1111755371094	492.2543945312501	772.4741821289065	296.1922607421876	439.0733337402345	752.5619506835939	356.5827331542969	463.9525756835939	896.9107055664065	336.5185546875001	454.6730957031251	939.375427246094	393.4490661621095	451.173065185547	924.3518066406252	385.1624755859376	238.7399597167969	871.2467041015627	294.2431945800782	266.0530395507813	928.0948486328127	
4	0.0125	474.3853759765626	1222.882690429688	340.0177001953126	362.3237609863282	1223.034790039063	334.5464782714844	540.8828735351564	1144.062622070313	159.034652709961	314.6890563964844	1130.21826171875	146.2699890136719	611.1724853515626	858.0028076171877	182.2522430419922	592.7803955078126	862.422790527344	124.2102661132813	597.2201538085939	785.7675781250002	140.5188598632813	568.9920654296876	788.5860595703127	89.0590286254883	538.5205688476564	342.1120300292969	100.0354232788086	545.8026123046876	342.3576965332032	38.70818328857423	533.1536254882814	291.5079040527344	70.64674377441408	527.7427368164064	293.5032348632813	10.89062976837158	462.3294677734376	132.3143157958985	80.57556915283205	422.3522033691407	109.5008926391602	60.5833206176758	482.9686889648439	89.99890899658205	67.19817352294923	424.9132385253907	143.9527587890625	-1.764151573181153	516.7170410156251	107.6927185058594	15.13945674896241	448.3197326660157	170.3615417480469	-49.24821090698244	450.4997863769532	160.2347564697266	-83.65853118896486	503.2877197265626	171.2053375244141	-84.83670806884767	524.6696777343751	90.93668365478517	-34.06915664672852	444.3109741210939	144.7839813232422	-143.5724792480469	502.6053466796876	148.2798461914063	-150.1818389892578	545.5315551757814	96.37199401855472	-110.8514404296875	497.9289855957032	160.8430480957032	-203.8511199951172	243.6291656494141	873.598571777344	339.6488952636719	255.8968353271485	839.7611083984377	290.6631469726563	253.9894561767579	790.060485839844	354.6736755371094	278.6507568359376	758.4584960937501	309.5706787109376	289.1889038085938	541.3540649414064	724.7327270507814	279.5105285644532	490.7785949707032	711.4935913085939	288.2291870117188	498.1187133789064	759.8708496093751	295.6841125488282	444.2092895507814	741.3942260742189	356.4435119628907	473.0340881347657	884.8643188476565	336.5902099609376	464.8492431640626	927.7359008789065	393.5201416015626	460.8754272460939	912.5728149414065	384.6523742675782	247.2800598144532	864.930114746094	293.9622497558594	276.2933349609376	921.7022094726565	
